<svg width="1401" height="401" viewBox="0 0 1401 401" fill="none" xmlns="http://www.w3.org/2000/svg">
<path d="M0 200.05V400.1H700.266H1400.53V200.05V1.02073e-05H700.266H0V200.05ZM1369.69 200.05V369.24H700.266H30.8463V200.05V30.8603H700.266H1369.69V200.05Z" fill="black"/>
<path d="M123.385 192.146V260.959H160.617C181.398 260.959 200.339 260.742 203.532 260.417C216.682 259.172 226.477 255.166 233.566 248.127C237.842 243.85 240.277 239.79 242.55 233.293C244.227 228.42 244.281 227.879 244.281 219.812C244.281 212.124 244.173 211.095 242.874 207.522C240.98 202.27 239.032 199.022 235.515 195.286C232.159 191.821 228.101 188.951 224.529 187.544C223.23 187.056 221.931 186.461 221.715 186.244C221.444 185.974 222.689 185.053 224.475 184.079C227.722 182.346 232.322 178.177 234.324 175.145C236.867 171.301 237.842 166.916 237.842 159.445C237.842 153.164 237.679 151.973 236.326 148.075C232.213 136.489 223.501 128.963 209.593 125.174L204.289 123.766L163.864 123.549L123.385 123.387V192.146ZM192.167 155.384C195.09 156.196 197.633 158.091 199.04 160.527C200.068 162.368 200.231 163.343 200.122 166.537C199.96 169.786 199.689 170.706 198.391 172.438C195.468 176.228 194.332 176.499 177.664 176.499H162.89V165.671V154.843H176.582C184.05 154.843 191.085 155.113 192.167 155.384ZM195.198 203.19C197.038 203.569 199.527 204.598 200.718 205.41C206.67 209.579 207.428 219.703 202.125 225.009C198.337 228.799 196.93 229.016 178.746 229.016H162.89V215.751V202.487H177.394C187.08 202.487 192.925 202.757 195.198 203.19Z" fill="black"/>
<path d="M511.4 148.454V173.521L508.423 170.164C504.635 165.887 499.873 162.747 494.949 161.177C489.429 159.445 478.389 159.499 472.22 161.231C457.5 165.454 447.164 176.445 442.456 192.795C440.67 199.076 439.966 204.544 439.966 212.124C440.02 229.449 444.674 242.497 454.253 252.079C461.072 258.901 468.431 262.366 478.822 263.72C491.269 265.29 503.012 260.525 510.047 251.105L512.753 247.478L513.023 254.083L513.294 260.688L530.503 260.85L547.658 260.959V192.2V123.441H529.529H511.4V148.454ZM499.873 187.056C504.798 189.114 509.019 194.528 510.967 201.295C512.266 205.681 512.482 214.885 511.454 219.27C508.965 229.719 502.417 236.27 494.353 236.27C485.803 236.27 479.579 229.557 477.523 218.079C475.142 204.977 479.579 191.713 487.697 187.652C490.998 185.974 496.626 185.703 499.873 187.056Z" fill="black"/>
<path d="M669.42 192.2V260.959L718.828 260.85L768.182 260.688L768.345 243.471L768.453 226.309H738.959H709.466V174.875V123.441H689.443H669.42V192.2Z" fill="black"/>
<path d="M595.713 160.527C583.645 162.477 574.662 166.916 568.493 173.9C564.326 178.665 561.025 186.569 560.592 192.795L560.375 195.178L577.53 195.34L594.631 195.448L595.551 192.362C596.687 188.572 599.88 185.053 603.127 184.133C607.889 182.833 613.572 183.916 615.953 186.569C617.197 188.031 618.117 191.875 617.685 194.041C616.765 199.022 612.111 200.862 594.198 203.299C582.13 204.923 576.935 206.222 571.144 208.983C561.241 213.748 556.317 221.923 556.317 233.618C556.317 242.876 558.968 249.535 564.596 254.787C568.547 258.468 572.822 260.634 578.937 262.096C582.942 263.07 584.782 263.178 590.951 262.962C602.857 262.529 609.675 259.93 616.656 253.216C618.713 251.213 620.444 249.589 620.499 249.589C620.499 249.589 620.823 250.509 621.148 251.646C622.014 254.462 625.098 257.927 628.021 259.334C635.597 263.016 647.232 263.503 657.677 260.58L660.761 259.713V249.264V238.815L658.542 238.869C654.375 238.923 654.592 240.114 654.213 212.611C653.888 186.244 653.78 185.486 650.75 178.773C649.126 175.254 643.715 169.461 639.656 167.024C635.922 164.805 628.67 162.206 622.771 161.069C616.494 159.824 601.72 159.553 595.713 160.527ZM618.55 223.222C618.55 232.535 616.765 236.325 610.92 239.573C608.268 241.035 607.565 241.197 602.857 241.197C598.636 241.197 597.391 240.981 595.822 240.06C592.845 238.328 591.492 235.891 591.492 232.264C591.492 226.363 594.685 223.872 606.104 220.949C609.513 220.082 613.572 218.891 615.033 218.296C616.548 217.7 617.901 217.213 618.172 217.159C618.388 217.105 618.55 219.866 618.55 223.222Z" fill="black"/>
<path d="M421.729 161.61C414.586 163.18 407.713 167.891 402.788 174.496L400.461 177.69V170.327V162.964H382.874H365.286L365.394 211.799L365.556 260.688H383.685H401.814L402.085 236.325C402.355 214.776 402.518 211.636 403.384 208.983C405.548 202.378 408.471 198.318 412.962 195.611C417.616 192.849 421.783 192.037 429.847 192.308L436.719 192.579V177.203V161.881L435.312 161.34C433.364 160.582 425.734 160.744 421.729 161.61Z" fill="black"/>
<path d="M1167.4 161.881C1165.23 162.477 1162.15 163.613 1160.63 164.426C1157.87 165.942 1151 172.276 1148.19 175.958L1146.78 177.852L1146.73 170.381V162.964H1129.41H1112.09L1112.2 211.799L1112.36 260.688H1130.49H1148.62L1148.89 236.054C1149.16 212.232 1149.22 211.311 1150.41 208.009C1153 200.754 1157.06 196.26 1163.34 193.716C1166.15 192.579 1167.34 192.47 1174.76 192.47H1182.98V176.986V161.448L1181.79 161.123C1179.25 160.473 1171.3 160.852 1167.4 161.881Z" fill="black"/>
<path d="M252.182 196.91C252.182 217.484 252.399 232.318 252.724 234.43C253.589 239.681 255.808 245.907 258.135 249.535C262.086 255.653 266.848 259.334 274.1 261.879C278.104 263.287 279.024 263.395 286.817 263.395C294.61 263.395 295.53 263.287 299.534 261.879C305.054 259.93 310.303 256.411 314.687 251.592L318.204 247.748V254.353V260.959L335.413 260.85L352.568 260.688L352.731 211.799L352.839 162.964H334.439H316.04V191.604C316.04 223.493 316.04 223.71 312.36 227.933C309.979 230.748 307.111 232.21 303.214 232.589C296.991 233.238 292.499 230.91 290.118 225.821L288.711 222.789L288.549 192.849L288.386 162.964H270.311H252.182V196.91Z" fill="black"/>
<path d="M777.112 197.451C777.112 229.016 777.22 232.426 778.14 236.866C780.737 249.589 787.935 258.197 798.975 261.879C802.979 263.232 804.062 263.341 811.746 263.395C819.593 263.395 820.405 263.287 824.463 261.879C830.092 259.876 835.233 256.411 839.616 251.592L843.134 247.748V254.353V260.959L860.343 260.85L877.497 260.688L877.66 211.799L877.768 162.964H859.368H841.023L840.861 192.579L840.698 222.248L839.4 224.684C836.423 230.369 833.014 232.481 826.628 232.481C821.595 232.535 818.998 231.452 816.508 228.42C813.532 224.684 813.37 222.898 813.37 191.55V162.964H795.241H777.112V197.451Z" fill="black"/>
<path d="M888.05 163.18C888.05 163.343 894.652 173.846 902.662 186.569C910.725 199.238 917.273 209.741 917.273 209.85C917.273 210.012 910.184 221.219 901.525 234.754C892.921 248.344 885.669 259.768 885.507 260.201C885.29 260.85 888.05 260.959 904.718 260.959H924.254L925.282 259.443C925.823 258.631 929.179 252.783 932.696 246.449C936.214 240.169 939.244 234.971 939.407 234.971C939.569 234.971 942.762 240.764 946.496 247.857L953.26 260.688L973.987 260.85C986.434 260.904 994.659 260.796 994.659 260.471C994.659 260.201 987.57 248.506 978.966 234.538L963.272 209.092L977.072 186.298C984.648 173.792 990.871 163.397 990.871 163.234C990.871 163.072 982.267 162.964 971.714 162.964H952.557L946.983 173.792C943.898 179.747 941.247 184.62 941.084 184.62C940.922 184.62 938.27 179.747 935.186 173.792L929.666 162.964H908.831C897.412 162.964 888.05 163.072 888.05 163.18Z" fill="black"/>
<path d="M999.097 199.346C999.313 235.512 999.313 235.837 1000.5 239.844C1005.32 255.599 1016.58 263.666 1033.62 263.666C1044.72 263.666 1052.51 260.525 1059.98 253L1064.42 248.56L1064.58 254.624L1064.74 260.688H1082.06H1099.37L1099.54 211.799L1099.65 162.964H1081.25H1062.9L1062.74 192.308L1062.58 221.707L1061.28 224.576C1059.71 228.095 1056.46 230.965 1052.89 231.993C1045.69 234.159 1039.25 231.56 1036.49 225.496C1035.57 223.493 1035.52 220.84 1035.35 193.12L1035.19 162.964H1017.06H998.935L999.097 199.346Z" fill="black"/>
<path d="M1186.77 163.18C1186.77 163.289 1194.57 183.591 1204.14 208.28C1218.81 246.178 1221.57 253.65 1221.79 256.681C1222.33 263.503 1220.87 264.369 1208.15 264.748L1198.95 265.019V279.096V293.172L1215.18 293.118C1232.45 293.01 1235.37 292.631 1241.97 289.761C1249.71 286.405 1257.07 277.58 1261.45 266.373C1262.97 262.583 1296.63 163.992 1296.63 163.397C1296.63 163.18 1288.51 162.964 1278.66 162.964H1260.64L1253.71 186.136C1249.93 198.859 1246.08 212.286 1245.22 216.022C1244.3 219.757 1243.43 223.493 1243.16 224.305C1242.84 225.605 1242.4 224.197 1240.78 216.996C1239.64 212.178 1235.64 197.993 1231.85 185.54L1224.92 162.964H1205.88C1195.38 162.964 1186.77 163.072 1186.77 163.18Z" fill="black"/>
</svg>
